<?xml version="1.0" encoding="UTF-8"?><svg id="Layer_1" xmlns="http://www.w3.org/2000/svg" viewBox="0 0 104 104"><defs><style>.cls-1{fill:none;}.cls-1,.cls-2{stroke:#000;stroke-linecap:round;stroke-linejoin:round;stroke-width:2px;}</style></defs><g><circle class="cls-1" cx="45.73" cy="17.002" r="6.125"/><circle cx="50.453" cy="12.279" r="3.765"/></g><g><circle class="cls-1" cx="63.757" cy="17.002" r="6.125"/><circle cx="68.48" cy="12.279" r="3.765"/></g><path class="cls-1" d="M68.126,21.28c6.75,4.71,11.16,12.54,11.16,21.39,0,8.65-4.21,16.32-10.69,21.07-3.56,2.61-5.55,6.87-5.55,11.29v2.43c0,2.69-2.18,4.87-4.87,4.87h-10c-2.69,0-4.87-2.18-4.87-4.87v-2.43c0-4.42-1.99-8.68-5.55-11.29-6.47-4.75-10.68-12.42-10.68-21.07,0-9.75,5.35-18.26,13.28-22.74"/><path class="cls-1" d="M51.836,16.6c.44-.02,.89-.03,1.34-.03,1.52,0,3.01,.13,4.46,.39"/><rect class="cls-1" x="44.532" y="82.297" width="17.298" height="6.295" rx="3.147" ry="3.147"/><rect class="cls-2" x="47.47" y="88.592" width="11.422" height="6.295" rx="3.147" ry="3.147"/><line class="cls-1" x1="74.197" y1="44.744" x2="88.636" y2="44.744"/><line class="cls-1" x1="74.197" y1="36.932" x2="88.417" y2="34.425"/><line class="cls-1" x1="88.417" y1="54.931" x2="74.197" y2="52.424"/><path class="cls-1" d="M31.246,28.53c-1.85-1.93-4.3-3.04-6.85-3-1.63,.03-3.38,.5-4.79,1.32-2.96,1.74-3.57,5.23-1.7,8.06,.64,.97,1.48,1.85,2.35,2.61,.83,.73,1.83,1.31,2.42,2.27,.24,.4,.41,.86,.4,1.32-.01,.76-.45,1.44-.95,2.01-1.71,1.97-3.38,4.06-4.54,6.4-1.39,2.79-1.82,6.01-.56,8.93,1.08,2.48,3.15,4.55,5.72,5.45,3.82,1.34,8.36,.01,11.38-3.38"/><polygon class="cls-1" points="45.98 32.196 62.962 32.196 57.842 45.06 65.96 45.06 50.97 68.665 53.181 50.43 44.532 50.43 45.98 32.196"/><path class="cls-1" d="M21.382,53.207s-1.377,4.001,2.558,5.51"/></svg>