<?xml version="1.0" encoding="UTF-8"?><svg id="Layer_1" xmlns="http://www.w3.org/2000/svg" viewBox="0 0 104 104"><defs><style>.cls-1{fill:none;stroke:#000;stroke-linecap:round;stroke-linejoin:round;stroke-width:2px;}</style></defs><g><line class="cls-1" x1="45.675" y1="55.589" x2="58.325" y2="55.589"/><g><g><g><path class="cls-1" d="M18.466,73.689c-6.4-3.5-10.74-10.29-10.74-18.1,0-11.39,9.23-20.62,20.62-20.62s20.62,9.23,20.62,20.62c0,7.81-4.34,14.6-10.74,18.1"/><g><path class="cls-1" d="M28.337,65.433c5.439,0,9.849-4.4,9.849-9.839s-4.41-9.849-9.849-9.849c-5.216,0-9.489,4.06-9.829,9.188"/><circle cx="34.822" cy="50.968" r="5.894"/></g></g><g><path class="cls-1" d="M18.399,90.625v-16.25c0-1.831,1.485-3.316,3.316-3.316h0c1.831,0,3.316,1.485,3.316,3.316v11.25"/><path class="cls-1" d="M25.031,85.625v-11.25c0-1.831,1.485-3.316,3.316-3.316h0c1.831,0,3.316,1.485,3.316,3.316v11.25"/><path class="cls-1" d="M31.662,85.625v-11.25c0-1.831,1.485-3.316,3.316-3.316h0c1.831,0,3.316,1.485,3.316,3.316v16.25"/></g><line class="cls-1" x1="33.295" y1="31.079" x2="33.295" y2="24.463"/><line class="cls-1" x1="42.578" y1="34.879" x2="47.256" y2="30.2"/><line class="cls-1" x1="38.221" y1="31.945" x2="40.948" y2="25.917"/></g><g><g><path class="cls-1" d="M65.774,73.689c-6.4-3.5-10.74-10.29-10.74-18.1,0-11.39,9.23-20.62,20.62-20.62s20.62,9.23,20.62,20.62c0,7.81-4.34,14.6-10.74,18.1"/><g><path class="cls-1" d="M75.644,65.433c5.439,0,9.849-4.4,9.849-9.839s-4.41-9.849-9.849-9.849c-5.216,0-9.489,4.06-9.829,9.188"/><circle cx="82.129" cy="50.968" r="5.894"/></g></g><g><path class="cls-1" d="M65.706,90.625v-16.25c0-1.831,1.485-3.316,3.316-3.316h0c1.831,0,3.316,1.485,3.316,3.316v11.25"/><path class="cls-1" d="M72.338,85.625v-11.25c0-1.831,1.485-3.316,3.316-3.316h0c1.831,0,3.316,1.485,3.316,3.316v11.25"/><path class="cls-1" d="M78.97,85.625v-11.25c0-1.831,1.485-3.316,3.316-3.316h0c1.831,0,3.316,1.485,3.316,3.316v16.25"/></g><line class="cls-1" x1="80.602" y1="31.079" x2="80.602" y2="24.463"/><line class="cls-1" x1="89.885" y1="34.879" x2="94.564" y2="30.2"/><line class="cls-1" x1="85.529" y1="31.945" x2="88.255" y2="25.917"/></g></g></g><g><g><line class="cls-1" x1="59.778" y1="13.375" x2="59.778" y2="28.931"/><line class="cls-1" x1="67.556" y1="21.153" x2="52" y2="21.153"/></g><g><line class="cls-1" x1="65.277" y1="15.654" x2="54.278" y2="26.653"/><line class="cls-1" x1="65.277" y1="26.653" x2="54.278" y2="15.654"/></g></g><g><g><line class="cls-1" x1="52" y1="74.438" x2="52" y2="84.681"/><line class="cls-1" x1="57.121" y1="79.559" x2="46.879" y2="79.559"/></g><g><line class="cls-1" x1="55.621" y1="75.938" x2="48.379" y2="83.181"/><line class="cls-1" x1="55.621" y1="83.181" x2="48.379" y2="75.938"/></g></g></svg>