<?xml version="1.0" encoding="UTF-8"?><svg id="Layer_1" xmlns="http://www.w3.org/2000/svg" viewBox="0 0 104 104"><defs><style>.cls-1{stroke:#000;}.cls-1,.cls-2{fill:none;stroke-linecap:round;stroke-linejoin:round;stroke-width:2px;}.cls-2{stroke:#fff;}</style></defs><rect class="cls-1" x="54.443" y="42.494" width="12.342" height="20.463" rx="6.171" ry="6.171" transform="translate(25.126 -19.348) rotate(22.767)"/><rect class="cls-1" x="65.141" y="51.286" width="12.342" height="15.103" rx="6.171" ry="6.171" transform="translate(28.325 -23.012) rotate(22.767)"/><path class="cls-1" d="M33.345,63.422h8.493c2.286,0,4.138-1.853,4.138-4.138h0c0-4.312-3.496-7.808-7.808-7.808h-7.167c-3.312,0-5.996,2.685-5.996,5.996v4.978c0,6.576,.127,10.954,4.777,15.604"/><polyline class="cls-1" points="41.547 30.492 48.356 49.599 53.721 29.336 53.721 29.328"/><line class="cls-1" x1="65.003" y1="34.579" x2="63.051" y2="42.877"/><line class="cls-1" x1="34.728" y1="51.472" x2="29.783" y2="34.142"/><g><path class="cls-1" d="M35.496,80.75v3.857c0,2.854-2.314,5.168-5.168,5.168h0"/><path class="cls-1" d="M45.832,80.75v3.857c0,2.854-2.314,5.168-5.168,5.168h0c-2.854,0-5.168-2.314-5.168-5.168v-3.857"/><path class="cls-1" d="M56.168,80.75v3.857c0,2.854-2.314,5.168-5.168,5.168h0c-2.854,0-5.168-2.314-5.168-5.168v-3.857"/><path class="cls-1" d="M66.504,80.75v3.857c0,2.854-2.314,5.168-5.168,5.168h0c-2.854,0-5.168-2.314-5.168-5.168v-3.857"/><path class="cls-1" d="M71.672,89.775h0c-2.854,0-5.168-2.314-5.168-5.168v-3.857"/></g><path class="cls-1" d="M74.097,65.309c-.177,3.619-.934,7.176-2.236,10.538"/><polyline class="cls-1" points="83.036 31.881 79.375 45.995 77.139 33.418 87.458 43.48 72.126 41.663 87.458 36.912"/><g><circle class="cls-1" cx="33.811" cy="26.347" r="8.778"/><circle cx="37.244" cy="19.592" r="4.47"/></g><g><circle class="cls-1" cx="61.97" cy="26.347" r="8.778"/><circle cx="65.404" cy="19.592" r="4.47"/></g><path d="M83.817,65.963c2.979,0,5.395,2.415,5.395,5.395s-2.415,5.395-5.395,5.395c-2.979,0-5.395-2.415-5.395-5.395,0-2.979,2.415-5.395,5.395-5.395Z"/><path d="M77.57,78.983c1.918,0,3.473,1.555,3.473,3.473s-1.555,3.473-3.473,3.473-3.473-1.555-3.473-3.473c0-1.918,1.555-3.473,3.473-3.473Z"/><g><circle cx="23.051" cy="74.965" r="9.956"/><polyline class="cls-2" points="19.447 76.888 22.7 78.715 26.774 71.463"/></g></svg>